<mxfile host="Electron" modified="2024-03-20T10:37:03.897Z" agent="Mozilla/5.0 (Windows NT 10.0; Win64; x64) AppleWebKit/537.36 (KHTML, like Gecko) draw.io/24.0.4 Chrome/120.0.6099.109 Electron/28.1.0 Safari/537.36" etag="pM3jfTFcLcLhllHoLYn9" version="24.0.4" type="device">
  <diagram name="Sivu-1" id="Txyi9VL9VdtQyzSFgE_K">
    <mxGraphModel dx="1434" dy="854" grid="1" gridSize="10" guides="1" tooltips="1" connect="1" arrows="1" fold="1" page="1" pageScale="1" pageWidth="827" pageHeight="1169" math="0" shadow="0">
      <root>
        <mxCell id="0" />
        <mxCell id="1" parent="0" />
        <mxCell id="EKd9hur72PVPmYk2MiLA-2" value="" style="dashed=0;shape=rect;fillColor=#ffffff;strokeColor=none;" vertex="1" parent="1">
          <mxGeometry x="230" y="120" width="358" height="642" as="geometry" />
        </mxCell>
        <mxCell id="EKd9hur72PVPmYk2MiLA-3" value="12:30" style="dashed=0;shape=rect;fontSize=13;align=right;fillColor=#C2185B;strokeColor=none;fontColor=#FFFFFF;spacingRight=4;spacingTop=1;fontStyle=0;resizeWidth=1;whiteSpace=wrap;html=1;" vertex="1" parent="EKd9hur72PVPmYk2MiLA-2">
          <mxGeometry width="358" height="24" relative="1" as="geometry" />
        </mxCell>
        <mxCell id="EKd9hur72PVPmYk2MiLA-4" value="" style="dashed=0;shape=mxgraph.gmdl.top_bar;strokeColor=none;" vertex="1" parent="EKd9hur72PVPmYk2MiLA-3">
          <mxGeometry x="1" y="0.5" width="46" height="14" relative="1" as="geometry">
            <mxPoint x="-92" y="-7" as="offset" />
          </mxGeometry>
        </mxCell>
        <mxCell id="EKd9hur72PVPmYk2MiLA-5" value="Inbox" style="dashed=0;shape=rect;strokeColor=none;fillColor=#E91E63;resizeWidth=1;fontSize=20;fontColor=#FFFFFF;verticalAlign=middle;align=left;spacingLeft=72;spacingTop=-4;whiteSpace=wrap;html=1;" vertex="1" parent="EKd9hur72PVPmYk2MiLA-2">
          <mxGeometry width="358" height="57" relative="1" as="geometry">
            <mxPoint y="24" as="offset" />
          </mxGeometry>
        </mxCell>
        <mxCell id="EKd9hur72PVPmYk2MiLA-6" value="" style="dashed=0;shape=mxgraph.gmdl.preferences;strokeColor=#ffffff;strokeWidth=2;" vertex="1" parent="EKd9hur72PVPmYk2MiLA-5">
          <mxGeometry y="0.5" width="24" height="16" relative="1" as="geometry">
            <mxPoint x="16" y="-8" as="offset" />
          </mxGeometry>
        </mxCell>
        <mxCell id="EKd9hur72PVPmYk2MiLA-7" value="" style="dashed=0;shape=mxgraph.gmdl.search;strokeColor=#ffffff;fillColor=none;strokeWidth=2;" vertex="1" parent="EKd9hur72PVPmYk2MiLA-5">
          <mxGeometry x="1" y="0.5" width="16" height="16" relative="1" as="geometry">
            <mxPoint x="-78" y="-8" as="offset" />
          </mxGeometry>
        </mxCell>
        <mxCell id="EKd9hur72PVPmYk2MiLA-8" value="" style="ellipse;strokeColor=none;fillColor=#ffffff;" vertex="1" parent="EKd9hur72PVPmYk2MiLA-5">
          <mxGeometry x="1" y="0.5" width="20" height="20" relative="1" as="geometry">
            <mxPoint x="-37" y="-10" as="offset" />
          </mxGeometry>
        </mxCell>
        <mxCell id="EKd9hur72PVPmYk2MiLA-9" value="" style="dashed=0;shape=mxgraph.gmdl.check;strokeColor=#E91E63;fillColor=none;strokeWidth=2;" vertex="1" parent="EKd9hur72PVPmYk2MiLA-8">
          <mxGeometry x="5" y="6" width="12" height="8" as="geometry" />
        </mxCell>
        <mxCell id="EKd9hur72PVPmYk2MiLA-10" value="Ali Connors" style="shape=rect;fontSize=16;strokeColor=#eeeeee;fillColor=#ffffff;align=left;verticalAlign=top;spacing=16;spacingTop=-10;resizeWidth=1;whiteSpace=wrap;labelBorderColor=none;html=1;" vertex="1" parent="EKd9hur72PVPmYk2MiLA-2">
          <mxGeometry width="358" height="86" relative="1" as="geometry">
            <mxPoint y="81" as="offset" />
          </mxGeometry>
        </mxCell>
        <mxCell id="EKd9hur72PVPmYk2MiLA-11" value="Brunch this weekend?" style="text;fontSize=13;verticalAlign=middle;spacingLeft=16;resizeWidth=1;whiteSpace=wrap;html=1;" vertex="1" parent="EKd9hur72PVPmYk2MiLA-10">
          <mxGeometry width="300" height="20" relative="1" as="geometry">
            <mxPoint y="31" as="offset" />
          </mxGeometry>
        </mxCell>
        <mxCell id="EKd9hur72PVPmYk2MiLA-12" value="I&amp;#39;ll be in your neighbourheed doing errands ..." style="text;fontSize=13;verticalAlign=top;spacingLeft=16;fontColor=#999999;resizeWidth=1;whiteSpace=wrap;html=1;" vertex="1" parent="EKd9hur72PVPmYk2MiLA-10">
          <mxGeometry width="300" height="20" relative="1" as="geometry">
            <mxPoint y="50" as="offset" />
          </mxGeometry>
        </mxCell>
        <mxCell id="EKd9hur72PVPmYk2MiLA-13" value="15 min" style="text;fontSize=12;verticalAlign=top;spacingLeft=16;align=right;spacingTop=2;spacingRight=16;fontColor=#999999;html=1;" vertex="1" parent="EKd9hur72PVPmYk2MiLA-10">
          <mxGeometry x="1" width="80" height="20" relative="1" as="geometry">
            <mxPoint x="-80" as="offset" />
          </mxGeometry>
        </mxCell>
        <mxCell id="EKd9hur72PVPmYk2MiLA-14" value="" style="dashed=0;shape=mxgraph.gmdl.star;strokeColor=#B3B3B3;fillColor=#ffffff;strokeWidth=2;" vertex="1" parent="EKd9hur72PVPmYk2MiLA-10">
          <mxGeometry x="1" width="17" height="16" relative="1" as="geometry">
            <mxPoint x="-39" y="50" as="offset" />
          </mxGeometry>
        </mxCell>
        <mxCell id="EKd9hur72PVPmYk2MiLA-15" value="me, Scott, Jennifer" style="shape=rect;fontSize=16;strokeColor=#eeeeee;fillColor=#ffffff;align=left;verticalAlign=top;spacing=16;spacingTop=-10;resizeWidth=1;whiteSpace=wrap;html=1;" vertex="1" parent="EKd9hur72PVPmYk2MiLA-2">
          <mxGeometry width="358" height="86" relative="1" as="geometry">
            <mxPoint y="167" as="offset" />
          </mxGeometry>
        </mxCell>
        <mxCell id="EKd9hur72PVPmYk2MiLA-16" value="Summer BBQ" style="text;fontSize=13;verticalAlign=middle;spacingLeft=16;resizeWidth=1;whiteSpace=wrap;html=1;" vertex="1" parent="EKd9hur72PVPmYk2MiLA-15">
          <mxGeometry width="300" height="20" relative="1" as="geometry">
            <mxPoint y="31" as="offset" />
          </mxGeometry>
        </mxCell>
        <mxCell id="EKd9hur72PVPmYk2MiLA-17" value="Wish I could come, but I&amp;#39;m out of town this ..." style="text;fontSize=13;verticalAlign=top;spacingLeft=16;fontColor=#999999;resizeWidth=1;whiteSpace=wrap;html=1;" vertex="1" parent="EKd9hur72PVPmYk2MiLA-15">
          <mxGeometry width="300" height="20" relative="1" as="geometry">
            <mxPoint y="50" as="offset" />
          </mxGeometry>
        </mxCell>
        <mxCell id="EKd9hur72PVPmYk2MiLA-18" value="2 hr" style="text;fontSize=12;verticalAlign=top;spacingLeft=16;align=right;spacingTop=2;spacingRight=16;fontColor=#999999;whiteSpace=wrap;html=1;" vertex="1" parent="EKd9hur72PVPmYk2MiLA-15">
          <mxGeometry x="1" width="80" height="20" relative="1" as="geometry">
            <mxPoint x="-80" as="offset" />
          </mxGeometry>
        </mxCell>
        <mxCell id="EKd9hur72PVPmYk2MiLA-19" value="" style="dashed=0;shape=mxgraph.gmdl.star;strokeColor=#B3B3B3;fillColor=#ffffff;strokeWidth=2;" vertex="1" parent="EKd9hur72PVPmYk2MiLA-15">
          <mxGeometry x="1" width="17" height="16" relative="1" as="geometry">
            <mxPoint x="-39" y="50" as="offset" />
          </mxGeometry>
        </mxCell>
        <mxCell id="EKd9hur72PVPmYk2MiLA-20" value="Sandra Adams" style="shape=rect;fontSize=16;strokeColor=#eeeeee;fillColor=#ffffff;align=left;verticalAlign=top;spacing=16;spacingTop=-10;resizeWidth=1;whiteSpace=wrap;html=1;" vertex="1" parent="EKd9hur72PVPmYk2MiLA-2">
          <mxGeometry width="358" height="86" relative="1" as="geometry">
            <mxPoint y="253" as="offset" />
          </mxGeometry>
        </mxCell>
        <mxCell id="EKd9hur72PVPmYk2MiLA-21" value="Oui oui" style="text;fontSize=13;verticalAlign=middle;spacingLeft=16;resizeWidth=1;whiteSpace=wrap;html=1;" vertex="1" parent="EKd9hur72PVPmYk2MiLA-20">
          <mxGeometry width="300" height="20" relative="1" as="geometry">
            <mxPoint y="31" as="offset" />
          </mxGeometry>
        </mxCell>
        <mxCell id="EKd9hur72PVPmYk2MiLA-22" value="Do you have any recommendations? Have ..." style="text;fontSize=13;verticalAlign=top;spacingLeft=16;fontColor=#999999;resizeWidth=1;whiteSpace=wrap;html=1;" vertex="1" parent="EKd9hur72PVPmYk2MiLA-20">
          <mxGeometry width="300" height="20" relative="1" as="geometry">
            <mxPoint y="50" as="offset" />
          </mxGeometry>
        </mxCell>
        <mxCell id="EKd9hur72PVPmYk2MiLA-23" value="6 hr" style="text;fontSize=12;verticalAlign=top;spacingLeft=16;align=right;spacingTop=2;spacingRight=16;fontColor=#999999;whiteSpace=wrap;html=1;" vertex="1" parent="EKd9hur72PVPmYk2MiLA-20">
          <mxGeometry x="1" width="80" height="20" relative="1" as="geometry">
            <mxPoint x="-80" as="offset" />
          </mxGeometry>
        </mxCell>
        <mxCell id="EKd9hur72PVPmYk2MiLA-24" value="" style="dashed=0;shape=mxgraph.gmdl.star;strokeColor=#B3B3B3;fillColor=#ffffff;strokeWidth=2;" vertex="1" parent="EKd9hur72PVPmYk2MiLA-20">
          <mxGeometry x="1" width="17" height="16" relative="1" as="geometry">
            <mxPoint x="-39" y="50" as="offset" />
          </mxGeometry>
        </mxCell>
        <mxCell id="EKd9hur72PVPmYk2MiLA-25" value="Trevor Hansen" style="shape=rect;fontSize=16;strokeColor=#eeeeee;fillColor=#ffffff;align=left;verticalAlign=top;spacing=16;spacingTop=-10;resizeWidth=1;whiteSpace=wrap;html=1;" vertex="1" parent="EKd9hur72PVPmYk2MiLA-2">
          <mxGeometry width="358" height="86" relative="1" as="geometry">
            <mxPoint y="339" as="offset" />
          </mxGeometry>
        </mxCell>
        <mxCell id="EKd9hur72PVPmYk2MiLA-26" value="Birthday gift" style="text;fontSize=13;verticalAlign=middle;spacingLeft=16;resizeWidth=1;whiteSpace=wrap;html=1;" vertex="1" parent="EKd9hur72PVPmYk2MiLA-25">
          <mxGeometry width="300" height="20" relative="1" as="geometry">
            <mxPoint y="31" as="offset" />
          </mxGeometry>
        </mxCell>
        <mxCell id="EKd9hur72PVPmYk2MiLA-27" value="Have any ideas about what to get Heidi for ..." style="text;fontSize=13;verticalAlign=top;spacingLeft=16;fontColor=#999999;resizeWidth=1;whiteSpace=wrap;html=1;" vertex="1" parent="EKd9hur72PVPmYk2MiLA-25">
          <mxGeometry width="300" height="20" relative="1" as="geometry">
            <mxPoint y="50" as="offset" />
          </mxGeometry>
        </mxCell>
        <mxCell id="EKd9hur72PVPmYk2MiLA-28" value="12 hr" style="text;fontSize=12;verticalAlign=top;spacingLeft=16;align=right;spacingTop=2;spacingRight=16;fontColor=#999999;whiteSpace=wrap;html=1;" vertex="1" parent="EKd9hur72PVPmYk2MiLA-25">
          <mxGeometry x="1" width="80" height="20" relative="1" as="geometry">
            <mxPoint x="-80" as="offset" />
          </mxGeometry>
        </mxCell>
        <mxCell id="EKd9hur72PVPmYk2MiLA-29" value="" style="dashed=0;shape=mxgraph.gmdl.star;strokeColor=#B3B3B3;fillColor=#ffffff;strokeWidth=2;" vertex="1" parent="EKd9hur72PVPmYk2MiLA-25">
          <mxGeometry x="1" width="17" height="16" relative="1" as="geometry">
            <mxPoint x="-39" y="50" as="offset" />
          </mxGeometry>
        </mxCell>
        <mxCell id="EKd9hur72PVPmYk2MiLA-30" value="Britta Holt" style="shape=rect;fontSize=16;strokeColor=#eeeeee;fillColor=#ffffff;align=left;verticalAlign=top;spacing=16;spacingTop=-10;resizeWidth=1;whiteSpace=wrap;html=1;" vertex="1" parent="EKd9hur72PVPmYk2MiLA-2">
          <mxGeometry width="358" height="86" relative="1" as="geometry">
            <mxPoint y="425" as="offset" />
          </mxGeometry>
        </mxCell>
        <mxCell id="EKd9hur72PVPmYk2MiLA-31" value="Recipe to try" style="text;fontSize=13;verticalAlign=middle;spacingLeft=16;resizeWidth=1;whiteSpace=wrap;html=1;" vertex="1" parent="EKd9hur72PVPmYk2MiLA-30">
          <mxGeometry width="300" height="20" relative="1" as="geometry">
            <mxPoint y="31" as="offset" />
          </mxGeometry>
        </mxCell>
        <mxCell id="EKd9hur72PVPmYk2MiLA-32" value="We should eat this: grated squash, corn and ..." style="text;fontSize=13;verticalAlign=top;spacingLeft=16;fontColor=#999999;resizeWidth=1;whiteSpace=wrap;html=1;" vertex="1" parent="EKd9hur72PVPmYk2MiLA-30">
          <mxGeometry width="300" height="20" relative="1" as="geometry">
            <mxPoint y="50" as="offset" />
          </mxGeometry>
        </mxCell>
        <mxCell id="EKd9hur72PVPmYk2MiLA-33" value="18 hr" style="text;fontSize=12;verticalAlign=top;spacingLeft=16;align=right;spacingTop=2;spacingRight=16;fontColor=#999999;whiteSpace=wrap;html=1;" vertex="1" parent="EKd9hur72PVPmYk2MiLA-30">
          <mxGeometry x="1" width="80" height="20" relative="1" as="geometry">
            <mxPoint x="-80" as="offset" />
          </mxGeometry>
        </mxCell>
        <mxCell id="EKd9hur72PVPmYk2MiLA-34" value="" style="dashed=0;shape=mxgraph.gmdl.star;strokeColor=#B3B3B3;fillColor=#ffffff;strokeWidth=2;" vertex="1" parent="EKd9hur72PVPmYk2MiLA-30">
          <mxGeometry x="1" width="17" height="16" relative="1" as="geometry">
            <mxPoint x="-39" y="50" as="offset" />
          </mxGeometry>
        </mxCell>
        <mxCell id="EKd9hur72PVPmYk2MiLA-35" value="David Park" style="shape=rect;fontSize=16;strokeColor=#eeeeee;fillColor=#ffffff;align=left;verticalAlign=top;spacing=16;spacingTop=-10;resizeWidth=1;whiteSpace=wrap;html=1;" vertex="1" parent="EKd9hur72PVPmYk2MiLA-2">
          <mxGeometry width="358" height="86" relative="1" as="geometry">
            <mxPoint y="511" as="offset" />
          </mxGeometry>
        </mxCell>
        <mxCell id="EKd9hur72PVPmYk2MiLA-36" value="Giants game" style="text;fontSize=13;verticalAlign=middle;spacingLeft=16;resizeWidth=1;whiteSpace=wrap;html=1;" vertex="1" parent="EKd9hur72PVPmYk2MiLA-35">
          <mxGeometry width="300" height="20" relative="1" as="geometry">
            <mxPoint y="31" as="offset" />
          </mxGeometry>
        </mxCell>
        <mxCell id="EKd9hur72PVPmYk2MiLA-37" value="Any interest in seeing the Giants play next ..." style="text;fontSize=13;verticalAlign=top;spacingLeft=16;fontColor=#999999;resizeWidth=1;whiteSpace=wrap;html=1;" vertex="1" parent="EKd9hur72PVPmYk2MiLA-35">
          <mxGeometry width="300" height="20" relative="1" as="geometry">
            <mxPoint y="50" as="offset" />
          </mxGeometry>
        </mxCell>
        <mxCell id="EKd9hur72PVPmYk2MiLA-38" value="23 hr" style="text;fontSize=12;verticalAlign=top;spacingLeft=16;align=right;spacingTop=2;spacingRight=16;fontColor=#999999;whiteSpace=wrap;html=1;" vertex="1" parent="EKd9hur72PVPmYk2MiLA-35">
          <mxGeometry x="1" width="80" height="20" relative="1" as="geometry">
            <mxPoint x="-80" as="offset" />
          </mxGeometry>
        </mxCell>
        <mxCell id="EKd9hur72PVPmYk2MiLA-39" value="" style="dashed=0;shape=mxgraph.gmdl.star;strokeColor=#B3B3B3;fillColor=#ffffff;strokeWidth=2;" vertex="1" parent="EKd9hur72PVPmYk2MiLA-35">
          <mxGeometry x="1" width="17" height="16" relative="1" as="geometry">
            <mxPoint x="-39" y="50" as="offset" />
          </mxGeometry>
        </mxCell>
        <mxCell id="EKd9hur72PVPmYk2MiLA-40" value="" style="shape=ellipse;strokeColor=none;fillColor=#18FFFF;shadow=1;" vertex="1" parent="EKd9hur72PVPmYk2MiLA-2">
          <mxGeometry x="1" y="1" width="56" height="56" relative="1" as="geometry">
            <mxPoint x="-78" y="-129" as="offset" />
          </mxGeometry>
        </mxCell>
        <mxCell id="EKd9hur72PVPmYk2MiLA-41" value="" style="dashed=0;shape=mxgraph.gmdl.plus;strokeColor=#084560;strokeWidth=2;" vertex="1" parent="EKd9hur72PVPmYk2MiLA-40">
          <mxGeometry x="20" y="20" width="16" height="16" as="geometry" />
        </mxCell>
        <mxCell id="EKd9hur72PVPmYk2MiLA-42" value="" style="dashed=0;shape=rect;strokeColor=none;fillColor=#000000;resizeWidth=1;" vertex="1" parent="EKd9hur72PVPmYk2MiLA-2">
          <mxGeometry y="1" width="358" height="48" relative="1" as="geometry">
            <mxPoint y="-48" as="offset" />
          </mxGeometry>
        </mxCell>
        <mxCell id="EKd9hur72PVPmYk2MiLA-43" value="" style="dashed=0;shape=mxgraph.gmdl.back;strokeColor=#ffffff;fillColor=#000000;strokeWidth=2;" vertex="1" parent="EKd9hur72PVPmYk2MiLA-42">
          <mxGeometry x="0.25" y="0.5" width="14" height="14" relative="1" as="geometry">
            <mxPoint x="-7" y="-7" as="offset" />
          </mxGeometry>
        </mxCell>
        <mxCell id="EKd9hur72PVPmYk2MiLA-44" value="" style="shape=ellipse;strokeColor=#ffffff;fillColor=#000000;strokeWidth=2;" vertex="1" parent="EKd9hur72PVPmYk2MiLA-42">
          <mxGeometry x="0.5" y="0.5" width="14" height="14" relative="1" as="geometry">
            <mxPoint x="-7" y="-7" as="offset" />
          </mxGeometry>
        </mxCell>
        <mxCell id="EKd9hur72PVPmYk2MiLA-45" value="" style="shape=rect;strokeColor=#ffffff;fillColor=#000000;strokeWidth=2;" vertex="1" parent="EKd9hur72PVPmYk2MiLA-42">
          <mxGeometry x="0.75" y="0.5" width="14" height="14" relative="1" as="geometry">
            <mxPoint x="-7" y="-7" as="offset" />
          </mxGeometry>
        </mxCell>
      </root>
    </mxGraphModel>
  </diagram>
</mxfile>
